<svg width="154" height="40" viewBox="0 0 154 40" fill="none" xmlns="http://www.w3.org/2000/svg">
<path d="M129.878 33.3333C127.32 33.3333 125.02 32.7524 122.978 31.5898C120.936 30.4275 119.327 28.8421 118.152 26.8333C116.976 24.8249 116.388 22.5473 116.388 20C116.388 17.4703 116.976 15.2011 118.152 13.1923C119.327 11.1839 120.936 9.59416 122.978 8.4231C125.02 7.25239 127.32 6.66669 129.878 6.66669C132.434 6.66669 134.726 7.25239 136.751 8.4231C138.776 9.59416 140.372 11.1839 141.539 13.1923C142.706 15.2011 143.29 17.4703 143.29 20C143.29 22.5473 142.706 24.8249 141.539 26.8333C140.372 28.8421 138.776 30.4275 136.751 31.5898C134.726 32.7524 132.434 33.3333 129.878 33.3333ZM129.852 29.5385C131.585 29.5385 133.138 29.1198 134.511 28.2821C135.884 27.4447 136.97 26.3077 137.768 24.8718C138.566 23.4359 138.965 21.8037 138.965 19.9744C138.965 18.1795 138.566 16.5641 137.768 15.1282C136.97 13.6923 135.884 12.5557 134.511 11.718C133.138 10.8806 131.585 10.4616 129.852 10.4616C128.118 10.4616 126.561 10.8806 125.179 11.718C123.798 12.5557 122.708 13.6923 121.91 15.1282C121.112 16.5641 120.713 18.1795 120.713 19.9744C120.713 21.8037 121.112 23.4359 121.91 24.8718C122.708 26.3077 123.798 27.4447 125.179 28.2821C126.561 29.1198 128.118 29.5385 129.852 29.5385Z" fill="#070715"/>
<path d="M30.7783 32.82H27.0714L26.917 28.6663C25.973 30.1707 24.7329 31.3245 23.1972 32.1277C21.6612 32.931 19.8464 33.3328 17.7528 33.3328C14.3376 33.3328 11.6391 32.3032 9.65692 30.2432C7.67479 28.1836 6.68372 25.3676 6.68372 21.7948V7.18005H10.9054V21.4871C10.9054 23.9145 11.596 25.8547 12.9776 27.3074C14.3589 28.7605 16.1995 29.4868 18.4993 29.4868C20.9018 29.4868 22.8453 28.7008 24.3299 27.1279C25.8141 25.5555 26.5566 23.5043 26.5566 20.9743V7.18005H30.7783V32.82Z" fill="#070715"/>
<path d="M36.2877 30.5893L37.3946 26.6408C38.0124 27.222 38.7158 27.7264 39.5055 28.1535C40.2947 28.581 41.1272 28.9099 42.0025 29.1406C42.8777 29.3714 43.7613 29.4868 44.6539 29.4868C46.2499 29.4868 47.537 29.1366 48.5152 28.4356C49.4934 27.7348 49.9825 26.8202 49.9825 25.6921C49.9825 24.8716 49.7291 24.1921 49.2231 23.6537C48.7166 23.1153 48.0518 22.6497 47.2281 22.2563C46.4044 21.8633 45.5203 21.4871 44.5767 21.1282C43.4266 20.6839 42.2856 20.1795 41.153 19.6154C40.0203 19.0513 39.0807 18.3078 38.3342 17.3847C37.5877 16.4617 37.2144 15.2482 37.2144 13.7439C37.2144 12.308 37.5748 11.0605 38.2956 10.0004C39.0164 8.94076 40.0244 8.12029 41.3203 7.53899C42.6157 6.95806 44.1045 6.66724 45.7865 6.66724C48.3262 6.66724 50.8232 7.29981 53.2775 8.56459L52.0161 12.3593C51.4667 12.0003 50.832 11.6798 50.1112 11.3978C49.3904 11.1158 48.6523 10.8978 47.8974 10.744C47.1421 10.5901 46.4301 10.5132 45.7608 10.5132C44.5078 10.5132 43.4955 10.7997 42.7232 11.3722C41.951 11.945 41.5648 12.7098 41.5648 13.6669C41.5648 14.2142 41.7233 14.7141 42.0411 15.1669C42.3583 15.62 42.8946 16.0687 43.65 16.513C44.4048 16.9576 45.4519 17.4532 46.7905 18.0001C47.9746 18.4788 49.1414 19.0217 50.2914 19.6282C51.441 20.2352 52.3977 21.0128 53.1616 21.9615C53.9251 22.9101 54.3072 24.1453 54.3072 25.6664C54.3072 27.1708 53.9082 28.4996 53.1102 29.6534C52.3122 30.8072 51.2052 31.709 49.7894 32.3585C48.3736 33.0079 46.739 33.3328 44.8856 33.3328C41.8134 33.3328 38.9475 32.4185 36.2877 30.5893Z" fill="#070715"/>
<path d="M83.1843 29.6663C79.9923 32.1108 76.4739 33.3328 72.63 33.3328C69.9529 33.3328 67.55 32.7346 65.4223 31.538C63.294 30.3417 61.6165 28.7136 60.3897 26.6536C59.1624 24.594 58.5491 22.2651 58.5491 19.6667C58.5491 17.1712 59.1155 14.9449 60.2481 12.9875C61.3808 11.0304 62.9336 9.48763 64.9074 8.35947C66.8807 7.23131 69.1203 6.66724 71.6261 6.66724C74.2003 6.66724 76.4697 7.2826 78.4349 8.51331C80.3996 9.74403 81.9313 11.4535 83.0298 13.6413C84.1279 15.8295 84.6773 18.3591 84.6773 21.2307V22.0512H63.1312C63.4401 23.5555 64.062 24.8632 64.9975 25.9741C65.9326 27.0854 67.0955 27.9484 68.4856 28.5638C69.8756 29.1791 71.4285 29.4868 73.1449 29.4868C76.0964 29.4868 78.7907 28.5213 81.2279 26.5895L83.1843 29.6663ZM62.9768 18.4616H80.6873C80.4983 16.8719 80.0051 15.4833 79.2071 14.2951C78.4091 13.1073 77.3794 12.1798 76.1181 11.5132C74.8567 10.8465 73.4364 10.5132 71.8578 10.5132C70.2618 10.5132 68.8243 10.8465 67.546 11.5132C66.2672 12.1798 65.2292 13.1073 64.4312 14.2951C63.6332 15.4833 63.1481 16.8719 62.9768 18.4616Z" fill="#070715"/>
<path d="M112.624 29.1278C111.371 30.4783 109.887 31.5167 108.171 32.2431C106.455 32.9694 104.61 33.3328 102.637 33.3328C100.079 33.3328 97.7842 32.7518 95.7506 31.5893C93.7169 30.427 92.1121 28.8374 90.9368 26.8202C89.761 24.8035 89.1735 22.5299 89.1735 20C89.1735 17.4532 89.761 15.1757 90.9368 13.167C92.1121 11.1586 93.7169 9.57333 95.7506 8.41075C97.7842 7.24853 100.079 6.66724 102.637 6.66724C104.593 6.66724 106.429 7.0262 108.145 7.74411C109.861 8.46203 111.346 9.49641 112.599 10.8465L110.076 13.4875C109.166 12.5304 108.081 11.7952 106.82 11.2824C105.558 10.7696 104.224 10.5132 102.817 10.5132C101.015 10.5132 99.4143 10.9194 98.0159 11.7311C96.617 12.5432 95.5189 13.6585 94.7209 15.0771C93.9229 16.4961 93.5239 18.1283 93.5239 19.9744C93.5239 21.8204 93.9229 23.4614 94.7209 24.8972C95.5189 26.3331 96.617 27.4572 98.0159 28.2689C99.4143 29.0809 101.015 29.4868 102.817 29.4868C104.224 29.4868 105.562 29.2264 106.833 28.7048C108.102 28.1835 109.183 27.4528 110.076 26.5126L112.624 29.1278Z" fill="#070715"/>
<path d="M145.903 18.2H113.775V21.8H145.903V18.2Z" fill="#1450FA"/>
<path d="M143.185 21.8C142.974 23.632 142.425 25.3094 141.539 26.832C140.371 28.8427 138.776 30.4267 136.749 31.5894C134.725 32.752 132.433 33.3334 129.876 33.3334C127.32 33.3334 125.02 32.752 122.977 31.5894C120.934 30.4267 119.325 28.8427 118.15 26.832C117.258 25.3094 116.707 23.632 116.493 21.8H120.857C121.036 22.9094 121.387 23.9307 121.909 24.8721C122.707 26.3067 123.796 27.4454 125.178 28.2827C126.559 29.12 128.117 29.5387 129.85 29.5387C131.585 29.5387 133.137 29.12 134.511 28.2827C135.884 27.4454 136.969 26.3067 137.766 24.8721C138.288 23.9307 138.639 22.9094 138.819 21.8H143.185Z" fill="url(#paint0_linear_8_66)"/>
<defs>
<linearGradient id="paint0_linear_8_66" x1="129.839" y1="33.3334" x2="129.839" y2="18.2114" gradientUnits="userSpaceOnUse">
<stop offset="0.1" stop-color="#1464FA" stop-opacity="0"/>
<stop offset="1" stop-color="#1464FA"/>
</linearGradient>
</defs>
</svg>
